<?xml version="1.0" encoding="UTF-8" standalone="no"?>
<!-- Created with Inkscape (http://www.inkscape.org/) -->

<svg
   xmlns:dc="http://purl.org/dc/elements/1.1/"
   xmlns:cc="http://creativecommons.org/ns#"
   xmlns:rdf="http://www.w3.org/1999/02/22-rdf-syntax-ns#"
   xmlns:svg="http://www.w3.org/2000/svg"
   xmlns="http://www.w3.org/2000/svg"
   xmlns:sodipodi="http://sodipodi.sourceforge.net/DTD/sodipodi-0.dtd"
   xmlns:inkscape="http://www.inkscape.org/namespaces/inkscape"
   width="1500"
   height="1500"
   viewBox="0 0 396.87499 396.87501"
   version="1.1"
   id="svg8"
   inkscape:version="0.92.1 r15371"
   sodipodi:docname="CROWN1.svg">
  <defs
     id="defs2" />
  <sodipodi:namedview
     id="base"
     pagecolor="#ffffff"
     bordercolor="#666666"
     borderopacity="1.0"
     inkscape:pageopacity="0.0"
     inkscape:pageshadow="2"
     inkscape:zoom="0.35"
     inkscape:cx="822.72851"
     inkscape:cy="775.35972"
     inkscape:document-units="px"
     inkscape:current-layer="layer1"
     showgrid="false"
     inkscape:snap-global="false"
     units="px"
     inkscape:window-width="1366"
     inkscape:window-height="745"
     inkscape:window-x="-8"
     inkscape:window-y="-8"
     inkscape:window-maximized="1" />
  <metadata
     id="metadata5">
    <rdf:RDF>
      <cc:Work
         rdf:about="">
        <dc:format>image/svg+xml</dc:format>
        <dc:type
           rdf:resource="http://purl.org/dc/dcmitype/StillImage" />
        <dc:title></dc:title>
      </cc:Work>
    </rdf:RDF>
  </metadata>
  <g
     inkscape:label="Layer 1"
     inkscape:groupmode="layer"
     id="layer1"
     transform="translate(0,99.875017)">
    <path
       inkscape:connector-curvature="0"
       id="path4571"
       style="fill:#1a1a1a;fill-opacity:1;fill-rule:nonzero;stroke:none;stroke-width:0.35277778"
       d="m 249.18988,77.97882 c -0.50024,-0.881944 -1.20015,-1.727905 -2.44158,-1.810808 -1.39065,-0.09631 -1.39065,-0.169333 -1.52823,-1.667228 -0.008,-0.121355 0,-0.267405 -0.0497,-0.398286 -0.16969,-0.569031 0.073,-0.891469 0.59125,-1.120422 0.7359,-0.313972 1.30069,-0.869597 1.66723,-1.577622 0.89853,-1.703564 0.92322,-3.44805 0.19438,-5.238045 -0.61454,-1.535289 -2.21156,-2.357966 -3.81035,-1.894769 -1.6824,0.490361 -1.34902,0.790928 -2.28882,-0.982486 -0.073,-0.14605 -0.12277,-0.299156 -0.1958,-0.435681 -0.19402,-0.378883 -0.0963,-0.709436 0.24413,-0.906639 2.02706,-1.292577 2.29587,-5.091994 0.73589,-7.036152 -0.92886,-1.167342 -2.72732,-1.842559 -4.09293,-1.01847 -0.69991,0.412045 -1.13806,1.015648 -1.4993,1.696509 -0.2921,0.545394 -0.60784,0.699911 -1.14512,0.261761 -0.51541,-0.416278 -0.90664,-0.960614 -1.48272,-1.320095 -0.33091,-0.218016 -0.21908,-0.599722 0.018,-0.913694 1.5434,-1.872897 1.70462,-3.924653 0.70802,-6.096705 -0.97684,-2.112434 -3.58704,-2.844095 -5.33153,-0.853017 -0.85725,0.981428 -1.24424,2.136069 -1.31445,3.403953 -0.0483,0.866775 -0.16968,0.967316 -1.01035,0.67945 -0.24659,-0.09666 -0.48648,-0.217664 -0.74683,-0.267406 -1.14512,-0.217664 -1.26083,-0.475544 -0.82833,-1.552928 0.7359,-1.836914 0.59832,-3.664302 -0.32349,-5.392561 -0.74577,-1.390297 -2.54282,-1.806575 -3.93312,-1.198739 -2.413,1.066448 -2.62643,3.824111 -2.14983,5.991578 0.14464,0.661458 0.0716,0.928864 -0.62971,1.012825 -0.21907,0.01799 -0.43003,-0.0053 -0.64488,0.01658 -1.99002,0.217663 -1.96497,0.01517 -1.66617,-1.944159 0.35419,-2.297289 -0.66816,-3.956402 -2.05175,-4.609747 -2.36467,-1.127125 -4.23192,0.283986 -4.83835,2.473678 -0.3997,1.482725 -0.3623,2.896658 0.33761,4.270375 0.33091,0.646289 0.14464,0.982839 -0.55951,1.127478 -0.49036,0.09772 -0.95496,0.339019 -1.4291,0.50165 -0.3817,0.121002 -0.75353,0.194027 -1.13665,-0.04974 -1.03646,-0.638175 -2.0962,-1.213908 -3.2191,-1.690864 -1.43615,-0.613128 -2.88007,-1.1811 -4.39314,-1.521531 -2.66523,-0.607483 -5.34564,-1.127124 -8.11,-1.049866 -1.84503,0.07303 -3.70276,-0.04833 -5.53967,0.09772 -0.77294,0.07161 -1.53635,0.194381 -2.24755,-0.09772 -0.5842,-0.219075 -1.13806,-0.407811 -1.75966,-0.432858 -0.60501,-0.01517 -0.95356,-0.531637 -0.87524,-1.15182 0.28399,-2.204861 0.31574,-4.400197 -0.46143,-6.536266 -0.68369,-1.890536 -1.651,-3.571875 -3.27978,-4.829881 -0.42298,-0.330905 -1.36842,-0.547158 -1.33667,-1.254125 V 26.70222 h 5.62927 v -6.813198 h -5.62927 v -7.028038 h -5.27791 v 7.028038 h -5.70512 v 6.813198 h 5.70512 v 5.959827 c -0.19438,0.217664 -1.39735,0.621595 -1.74202,0.913695 -2.05845,1.757186 -3.49602,3.631141 -4.12573,6.22053 -0.43674,1.788583 -0.39829,3.610328 -0.30586,5.430661 0.0483,0.623006 -0.21908,0.858661 -0.80469,0.906992 -0.71402,0.07303 -1.41393,0.219075 -1.94451,0.760589 -0.16933,0.169333 -0.35136,0.19438 -0.58032,0.19438 -2.12196,-0.14605 -4.19453,-0.643467 -6.3373,-0.614539 -2.48214,0.04798 -4.93889,0.194028 -7.38081,0.621242 -2.55905,0.448028 -5.03273,1.120422 -7.39035,2.243666 -1.1811,0.561975 -2.2352,1.635478 -3.82411,0.814212 -0.99095,-0.508353 -1.20438,-0.569031 -0.62441,-1.559984 1.11619,-1.867252 1.37548,-3.763433 0.38452,-5.7531 -0.6544,-1.291166 -2.06833,-2.144183 -3.25613,-2.005188 -1.23755,0.144638 -2.85821,1.445683 -3.09669,2.681816 -0.2674,1.372306 -0.47413,2.780947 0.19438,4.138083 0.24236,0.492125 0.21908,0.751064 -0.49071,0.760942 -0.96026,0.01623 -1.89618,-0.218017 -2.85644,-0.194381 -0.99237,0.01905 -1.18392,-0.19438 -0.84632,-1.137002 0.36266,-0.981075 0.46849,-1.99002 0.24271,-2.972506 -0.31573,-1.335264 -0.91087,-2.619375 -2.32621,-3.103386 -2.69558,-0.913341 -4.28555,0.999067 -4.70041,3.294945 -0.21908,1.291166 -0.14605,2.604558 0.52916,3.803649 0.25365,0.444853 0.0494,0.661459 -0.35983,0.858309 -0.44485,0.217664 -0.92745,0.169686 -1.3723,0.344664 -0.81457,0.344311 -1.04599,0.194027 -1.05975,-0.732014 -0.0194,-1.253772 -0.27023,-2.433461 -1.14512,-3.37185 -1.55328,-1.667581 -3.45616,-1.752953 -4.74627,-0.376414 -1.7459,1.849614 -1.88101,4.353278 -0.51505,6.551436 0.69991,1.120422 0.69991,1.120422 -0.32385,1.995311 -0.14605,0.121356 -0.24554,0.283986 -0.38171,0.407811 -0.8696,0.785636 -1.09149,0.746831 -1.71979,-0.290689 -0.49213,-0.821266 -1.13841,-1.450975 -2.10714,-1.660525 -0.92887,-0.19438 -1.83551,-0.169333 -2.58798,0.474134 -1.49789,1.275997 -2.03659,2.888191 -1.77483,4.838347 0.14605,1.151819 0.51259,2.159352 1.40265,2.896658 0.44662,0.366536 0.46849,0.760589 0.30198,1.189214 -0.14605,0.383117 -0.37889,0.735894 -0.60078,1.08973 -0.28963,0.453673 -0.58315,0.453673 -1.11372,0.219428 -1.550108,-0.735894 -3.749678,-0.413455 -4.592817,1.489428 -0.483658,1.084439 -0.691797,2.211917 -0.589844,3.419122 0.09631,1.192036 0.475544,2.404533 1.442861,2.955925 1.190625,0.677686 1.4732,1.368072 1.227667,2.643011 -0.194381,1.037519 -0.04798,1.091142 -1.088673,1.059744 -0.877711,-0.04974 -1.698977,0.217664 -2.259894,0.821267 -1.405467,1.524 -1.825978,3.286478 -1.223786,5.338586 0.5334,1.758245 1.769533,2.911475 3.565172,2.826103 0.906639,-0.07303 1.367014,0.219075 1.450975,1.072091 0.0071,0.09807 0.04974,0.252237 0.07303,0.344664 0.299156,1.020939 0.170745,1.237545 -0.923219,1.320095 -0.582789,0.04833 -1.0668,0.299155 -1.476022,0.661458 -1.457678,1.289756 -1.941689,2.989086 -1.649237,4.838347 0.254706,1.591734 1.205795,2.880078 2.782006,3.287889 1.28023,0.330906 2.587978,0.0056 3.424421,-1.266472 0.21907,-0.337608 0.48366,-0.391231 0.69885,0.07303 0.28363,0.624416 0.63112,1.225197 0.91369,1.842558 0.24519,0.526345 0.14605,0.866775 -0.53763,0.866775 -0.8696,-0.0095 -1.55857,0.396875 -2.121962,1.037872 -1.681339,1.927578 -1.646766,5.421144 0.14605,7.220664 0.960262,0.96061 2.418292,1.19768 3.647372,0.43568 0.96062,-0.59831 1.61925,-1.41535 1.82316,-2.55905 0.0483,-0.24554 0.0967,-0.5514 0.43709,-0.60502 0.2988,-0.073 0.42968,0.19438 0.54434,0.38171 0.49036,0.87489 1.34902,1.55293 1.40546,2.6804 0.007,0.26176 0.26176,0.51541 0.40781,0.76059 1.09573,1.85879 2.29729,3.64914 3.71652,5.26944 0.96908,1.10385 1.86866,2.32058 3.28683,2.87338 1.32962,0.51964 2.11949,0.56092 2.80423,-0.87524 0.25223,-0.54434 0.43286,-1.07209 0.37606,-1.68381 -0.048,-0.36936 0.0981,-0.70838 0.44803,-0.86113 0.35419,-0.16969 0.73166,0.0162 0.91369,0.26317 0.93557,1.19063 2.38937,1.59561 3.56235,2.413 0.14605,0.0977 0.24377,0.121 0.37889,-0.0734 0.60607,-0.82126 1.29116,-1.6136 1.59032,-2.61267 0.4131,-1.37372 -0.43004,-3.67912 -1.63583,-4.52261 -0.75389,-0.53058 -2.80176,-0.84631 -3.47839,-0.26317 -0.71932,0.62971 -1.15182,1.33526 -1.14512,2.31246 0,0.89817 -0.39123,1.22625 -1.20015,1.08302 -0.92886,-0.14605 -2.00237,-1.45097 -2.02706,-2.39359 -0.0483,-1.62066 1.137,-2.48885 2.15124,-3.44946 0.21907,-0.19403 0.42968,-0.37889 0.59937,-0.61595 1.45097,-2.05176 0.6477,-3.511206 -0.76059,-5.268039 -0.76764,-0.970139 -1.89089,-1.582209 -2.75061,-2.436636 -1.23613,-1.222023 -2.11137,-2.78765 -2.9023,-4.323997 -1.24143,-2.425348 -2.27224,-5.008034 -2.68711,-7.695142 -0.43815,-2.873022 -0.62971,-5.837414 0.27411,-8.687153 0.47413,-1.499305 0.99907,-2.980619 1.73496,-4.393141 1.06927,-2.036586 2.36467,-3.879144 4.06259,-5.429603 1.32962,-1.205794 2.75061,-2.312105 4.46334,-2.864908 2.94217,-0.945092 6.0071,-1.169811 9.06216,-1.459089 0.75353,-0.07197 0.80045,0.219075 0.60078,0.829381 -0.50024,1.525411 -1.03505,3.039886 -1.39735,4.598458 -0.38171,1.68275 -0.74542,3.395486 -0.81457,5.108575 -0.14605,3.348566 -0.45191,6.7056 0.33761,10.040408 0.19438,0.818444 0.33761,1.664405 0.44803,2.517422 0.21907,1.743428 0.32244,3.503083 0.53728,5.246158 0.46178,3.763434 0.26176,7.411156 -1.09114,10.976328 -0.19438,0.506941 -0.073,0.713669 0.42016,0.859719 1.91946,0.576089 3.83222,1.208619 5.67619,2.014719 0.76059,0.3309 1.88101,0.5087 1.58186,1.82598 -0.018,0.0963 0.073,0.21766 0.0981,0.30056 0.21907,0.46144 0.48613,0.87489 0.96026,1.14512 0.61454,0.35278 1.20438,0.73589 1.76671,1.1684 0.34466,0.25365 0.60784,0.65864 0.37606,1.10384 -0.26035,0.51541 -0.63641,0.27693 -1.00577,0.073 -1.20862,-0.63677 -2.44193,-1.13842 -3.8488,-0.99907 -0.78282,0.073 -1.41394,0.52917 -1.46086,1.22767 -0.0716,0.95532 -0.46566,1.66617 -1.1811,2.24225 -0.41451,0.32385 -0.33761,0.57609 0.14605,0.6985 0.56939,0.14499 0.78987,0.53199 1.04458,1.0474 0.79234,1.57939 1.95298,2.87196 4.20299,1.68804 0.80363,-0.42157 1.42911,-1.09008 2.21192,-1.52118 0.26882,-0.14464 0.57609,-0.35419 0.85302,-0.0967 0.32243,0.29916 0.018,0.58032 -0.14605,0.83644 -1.24178,1.84397 -2.80177,3.26601 -5.00663,3.8795 -1.51165,0.42298 -3.02048,0.80468 -4.59281,0.39793 -2.08209,-0.52776 -3.89573,-1.46756 -5.33012,-3.14713 -0.64523,-0.76094 -1.05974,-0.96062 -1.45415,0.34431 -0.51929,1.71838 -1.41217,3.04976 -3.3334,3.57329 -2.11102,0.57467 -4.05412,0.43144 -5.93513,-0.68334 -0.27693,-0.17109 -0.56903,-0.29915 -0.90664,-0.25505 -0.12135,0.0166 -0.28398,-0.0498 -0.33761,0.12135 -0.0483,0.121 0,0.24236 0.0977,0.34431 2.10714,2.30399 3.3267,5.13186 4.60834,7.89764 1.22767,2.65007 2.09726,5.47476 3.14184,8.20208 0.48648,1.25413 0.89993,2.53436 1.30492,3.80894 0.17075,0.49178 0.38171,0.76906 0.96062,0.89288 0.58279,0.12136 1.09114,-0.0194 1.63547,-0.073 1.32998,-0.073 2.66665,-0.0497 3.98816,-0.0977 2.04364,-0.0967 4.10104,-0.073 6.14468,-0.12136 1.59314,-0.018 3.23144,0.0166 4.85211,0.16934 1.96779,0.19579 3.94793,-0.0716 5.92137,-0.0176 3.62691,0.073 7.24429,0.30162 10.86873,0.39546 2.61832,0.073 5.25286,-0.0967 7.85072,0.19544 2.18969,0.25506 4.3695,0.072 6.55108,0.25506 2.00378,0.19438 4.03895,0 6.06884,0.018 2.94075,0.0483 5.88292,-0.0166 8.81662,-0.0977 4.09293,-0.1464 8.18691,0.048 12.28125,0.14605 1.94839,0.073 3.90102,-0.0981 5.86634,0.073 2.49696,0.21907 5.0158,0.16933 7.52934,0.21907 2.04117,0.073 4.09434,0.0963 6.1281,0.21767 1.12042,0.073 2.2285,0.17074 3.34186,0.26317 0.70697,0.073 1.18781,-0.073 1.47179,-0.86254 0.69745,-1.96392 1.48978,-3.90137 2.26554,-5.83601 0.88865,-2.19674 1.75295,-4.40302 2.83457,-6.5225 0.59796,-1.1684 1.21391,-2.3495 1.62878,-3.6255 0.47413,-1.45803 1.30492,-2.78095 2.11278,-4.09399 0.16934,-0.25929 0.73166,-0.44379 0.39123,-0.80363 -0.21907,-0.24376 -0.60642,0.14464 -0.92181,0.26177 -0.018,0.006 -0.073,0.0483 -0.073,0.0483 -1.88101,0.98248 -3.79236,1.7212 -6.00428,1.38641 -1.48978,-0.21907 -2.63489,-0.82126 -3.38031,-2.16641 -0.3556,-0.6297 -0.55104,-1.31868 -0.87489,-1.95826 -0.36266,-0.73696 -0.57609,-0.73696 -1.20862,-0.14605 -1.20438,1.137 -2.50261,2.16499 -4.12327,2.65147 -1.41393,0.42016 -2.79611,0.68898 -4.3254,0.21767 -1.33421,-0.40781 -2.6723,-0.72884 -3.83258,-1.54058 -1.18075,-0.84596 -2.03659,-1.97344 -2.81658,-3.16548 -0.12277,-0.19403 -0.27693,-0.39123 -0.073,-0.6544 0.24236,-0.28117 0.43004,-0.0483 0.63924,0.018 0.48507,0.0963 0.81315,0.44626 1.15217,0.80328 1.24178,1.3462 3.00955,1.70462 4.31447,0.97719 0.43286,-0.24271 0.60114,-0.65334 0.89041,-0.98143 0.50024,-0.5909 0.62689,-1.48943 1.60408,-1.67287 0.48366,-0.0963 0.36936,-0.48507 0.048,-0.6918 -0.73554,-0.4452 -0.98107,-1.17404 -1.15182,-1.92793 -0.28398,-1.24142 -1.22661,-1.91946 -2.51918,-1.70321 -1.04987,0.19438 -1.99673,0.66146 -2.95734,1.10384 -0.25471,0.12136 -0.53587,0.19438 -0.75212,0.006 -0.24412,-0.19438 -0.14605,-0.50024 -0.073,-0.76094 0.073,-0.2921 0.24518,-0.49037 0.52635,-0.653 0.63923,-0.36794 1.30069,-0.69038 1.88242,-1.16734 0.66816,-0.55386 1.19062,-1.1049 0.85302,-2.09021 -0.1711,-0.46602 -0.0981,-0.89182 0.50024,-1.137 1.68098,-0.69321 3.39407,-1.29822 5.1689,-1.66758 1.25941,-0.26176 1.61078,-0.50553 1.15887,-1.53635 -0.70697,-1.604081 -0.85302,-3.318228 -0.88477,-5.007681 -0.048,-2.579864 0.0497,-5.175955 0.4699,-7.726891 0.46179,-2.65677 1.03082,-5.29837 1.48978,-7.963606 0.44521,-2.574219 0.39829,-5.192536 0.19438,-7.766755 -0.24271,-3.118203 -0.75106,-6.221589 -1.84926,-9.192683 -0.3309,-0.891822 -0.0981,-1.083381 0.87489,-1.059745 2.0507,0.07303 4.04037,0.527756 6.06072,0.822678 2.1262,0.312914 4.0319,1.14935 5.62222,2.525889 2.05599,1.766711 3.7772,3.855861 4.96112,6.328128 0.97684,2.0574 1.61925,4.224866 2.17311,6.444897 0.56762,2.265538 0.30021,4.468988 -0.19438,6.643511 -0.57609,2.5273 -1.38642,5.000977 -2.69664,7.281686 -1.03222,1.780469 -2.01471,3.602213 -3.54859,5.00768 -0.92886,0.85725 -1.95827,1.613606 -2.80423,2.564694 -1.71979,1.936048 -1.94451,4.132448 0.14605,6.013458 0.46708,0.43285 0.88195,0.92357 1.29822,1.39735 0.64347,0.75389 0.75072,1.73496 0.28082,2.5661 -0.31539,0.56233 -0.70662,1.04987 -1.25095,1.41253 -0.24272,0.14605 -0.46179,0.44767 -0.75389,0.30162 -0.30586,-0.17074 -0.19438,-0.51541 -0.16969,-0.80468 0.0483,-0.86255 -0.0176,-1.69087 -0.76058,-2.31387 -0.87489,-0.74542 -3.33199,-0.68192 -4.20159,0.2674 -1.82033,1.99143 -1.89618,4.4951 -0.0977,6.60647 0.21908,0.24518 0.42298,0.21908 0.63924,0.12241 1.08443,-0.43109 2.07398,-1.02093 3.05505,-1.63159 0.27023,-0.16934 0.4699,-0.53728 0.82127,-0.35278 0.31715,0.1711 0.30727,0.52105 0.33902,0.85302 0.073,0.60783 0.14464,1.20191 0.59972,1.69227 0.76588,0.84349 2.12619,0.46179 3.1182,-0.19438 1.78188,-1.18357 3.10339,-2.80423 4.3561,-4.50038 0.86678,-1.17017 1.78188,-2.32904 2.40348,-3.63397 0.46849,-0.96732 1.03328,-1.8355 1.67428,-2.67194 0.35948,-0.46743 0.58279,-0.36936 0.76059,0.0963 0.24518,0.64488 0.5207,1.26647 0.92181,1.84256 0.78422,1.14512 2.7947,1.61219 4.00861,0.92322 1.137,-0.65335 1.67464,-1.67428 2.08245,-2.87197 0.56233,-1.64535 -0.41205,-5.101519 -2.52589,-5.637388 -1.32045,-0.337608 -1.29152,-0.461786 -0.82127,-1.769533 0.49989,-1.390298 0.77294,-1.458031 1.83409,-0.422981 0.073,0.07303 0.14605,0.170744 0.21908,0.242358 0.87489,0.769056 2.51072,0.829734 3.50167,0.244123 1.83833,-1.10102 2.15794,-2.835981 2.04223,-4.739217 -0.073,-1.151819 -0.56938,-2.135717 -1.40582,-2.957336 -0.56091,-0.546806 -1.24424,-0.814211 -1.97308,-0.913342 -0.56092,-0.07303 -0.61489,-0.362655 -0.56798,-0.821266 0.14464,-1.565628 0.35984,-1.752953 1.96498,-1.806928 1.02129,-0.04798 1.92122,-0.414514 2.52765,-1.260828 1.35043,-1.881011 1.59138,-3.924653 0.45473,-5.943247 z M 210.2799,62.063957 c 0.76059,0.945444 0.92604,1.429102 0.96026,2.83598 0.018,1.471789 -1.02094,2.986264 -2.45004,3.360914 -0.60078,0.14605 -1.20579,-0.144639 -1.69651,-0.502708 -0.50553,-0.376414 -0.96026,-0.898525 -1.11619,-1.499306 -0.51399,-1.929342 -0.41204,-3.472744 1.46897,-4.870097 0.76094,-0.569031 2.08915,-0.219075 2.83457,0.678039 z m -4.064,-5.867753 c 0.78564,0.858661 1.05022,1.565628 1.06645,2.757664 0.0166,1.688041 -0.84314,2.856441 -2.25707,3.640666 -0.75107,0.416278 -2.09727,-0.217663 -2.78095,-1.21285 -1.31445,-1.912408 -0.90523,-3.938411 0.62971,-5.451474 0.90699,-0.890059 2.42146,-0.746831 3.34186,0.268816 z m -8.74783,-1.435806 c 0.008,-1.61925 0.94544,-2.712155 2.17452,-2.688519 0.65864,0.0081 1.12854,0.398286 1.45803,0.853017 0.80081,1.098197 0.64488,2.962627 -0.24518,4.025194 -0.72213,0.859719 -2.59785,0.560917 -3.02613,-0.522464 -0.21801,-0.553861 -0.50729,-1.128536 -0.35983,-1.667228 z m -4.6549,-4.900436 c 0.76905,-0.928863 1.53634,-1.066447 2.51213,-0.544336 1.03752,0.544336 1.6136,1.849261 1.29681,2.965803 -0.25929,0.952147 -0.70697,1.712736 -1.69651,2.141361 -0.74542,0.322439 -1.28975,0.121356 -1.78858,-0.346075 -0.64347,-0.582789 -1.12042,-1.278819 -0.95215,-2.199216 -0.12136,-0.799395 0.16933,-1.450975 0.62689,-2.020359 z m -3.50167,-1.320094 c 0.99624,-0.0067 1.73496,0.814564 1.72825,1.930753 0,1.333853 -0.70026,2.225322 -1.73496,2.221441 -0.92357,0 -1.68275,-0.893233 -1.66758,-1.952977 0.007,-1.328209 0.67804,-2.196395 1.67429,-2.196395 z m -4.67713,0.644878 c 0.69038,0.04833 1.46755,0.977194 1.48272,1.788936 0.007,0.799042 -0.85301,1.756833 -1.53917,1.744486 -0.95214,-0.01517 -1.34761,-0.767644 -1.41111,-1.635831 0,-0.942622 0.76482,-1.926519 1.46756,-1.894769 z m -8.75595,52.736044 c 1.98861,-1.20015 3.99345,-2.371373 6.01239,-3.524956 0.19439,-0.09772 0.2921,-0.286456 0.46179,-0.409223 0.39123,-0.27693 1.00718,-0.290688 1.12007,-0.884766 0.0981,-0.553861 -0.35419,-0.920397 -0.56762,-1.365603 -1.12854,-2.38125 -1.62877,-4.898672 -2.05175,-7.48665 -0.42334,-2.613025 -0.6918,-5.2324 -0.83538,-7.859183 -0.21908,-3.570464 -0.33056,-7.157508 -0.2921,-10.744553 0.0483,-2.750608 0.24271,-5.491338 0.56903,-8.218663 0.21801,-1.915231 0.67557,-3.801886 1.01318,-5.706181 0.048,-0.218016 0.073,-0.412044 0.0977,-0.62865 0.14463,-1.00718 0.60783,-1.320094 1.61783,-1.099608 0.24377,0.07303 0.48648,0.07303 0.72496,0.07303 2.28882,0.09772 4.47711,0.737306 6.61988,1.427692 1.34373,0.432858 2.65677,1.012825 3.90807,1.703211 1.651,0.913694 3.19581,1.937455 4.55436,3.234266 1.91276,1.823156 3.03459,4.025195 3.33516,6.675261 0.19403,1.743075 0.048,3.447697 -0.0981,5.182659 -0.19438,2.414411 -0.96732,4.678538 -1.5434,6.990997 -0.34431,1.365602 -0.92322,2.680052 -1.44533,4.001911 -0.75107,1.890536 -1.48026,3.793419 -2.39395,5.620808 -1.0594,2.126191 -2.1262,4.256969 -3.42583,6.260394 -0.47519,0.735895 -0.87489,1.543403 -1.397,2.257425 -0.47554,0.661458 -0.19438,1.147939 0.26035,1.552928 1.36843,1.234724 2.74355,2.463804 4.17266,3.624094 1.34902,1.10525 2.62502,2.31387 4.15466,3.19581 0.56938,0.33091 1.03082,0.82127 1.57939,1.18392 0.3556,0.24236 0.3556,0.58279 0.39405,0.90523 0.0152,0.19438 -0.0977,0.4505 -0.29351,0.52776 -0.24377,0.0977 -0.34572,-0.14605 -0.48366,-0.29916 -1.00859,-1.0347 -2.19816,-1.73496 -3.67947,-1.76636 -0.86819,-0.0166 -1.32962,0.63641 -1.68945,1.276 -0.33056,0.56903 -0.46849,1.2125 -1.24143,1.4291 -0.24553,0.073 -0.53763,0.57574 -0.073,0.89959 0.4131,0.28116 0.56056,0.69744 0.59795,1.16593 0.073,0.73589 0.30586,1.39029 0.77576,1.97343 0.6216,0.78529 1.64254,1.07492 2.59504,0.70697 0.80468,-0.31856 1.61078,-0.60783 2.37137,-1.01988 0.19438,-0.0977 0.39158,-0.19438 0.60078,-0.21907 0.28257,-0.0166 0.623,0.0483 0.78563,0.2921 0.19438,0.30585 -0.12276,0.45332 -0.29915,0.64346 -1.22767,1.42911 -2.7118,2.38125 -4.54872,2.94922 -0.99624,0.30586 -1.94169,0.35949 -2.93264,0.42969 -2.34244,0.0194 -4.48557,-0.55386 -6.32248,-2.09021 -0.56057,-0.46602 -0.96732,-1.0668 -1.41923,-1.61784 -0.38311,-0.45896 -0.59937,-0.48366 -1.0474,-0.0483 -1.46755,1.45803 -3.13231,2.71886 -5.17454,3.18735 -2.52024,0.56762 -4.84646,-0.018 -6.82942,-1.76955 -0.66852,-0.58808 -1.42064,-1.08831 -1.89089,-1.89053 -0.0963,-0.14605 -0.30586,-0.2674 -0.21908,-0.4766 0.0981,-0.26741 0.36795,-0.12136 0.56939,-0.14641 0.43532,-0.0162 0.82126,0.19438 1.11336,0.49072 0.60784,0.65475 1.37266,1.03081 2.1964,1.31621 1.70603,0.57432 2.91182,-0.85443 3.21909,-2.21192 0.12136,-0.623 0.41346,-1.00718 0.91652,-1.29116 0.19438,-0.0967 0.41346,-0.0967 0.40781,-0.41346 -0.007,-0.32244 -0.2547,-0.55104 -0.45191,-0.58279 -0.69179,-0.0981 -0.83643,-0.65334 -0.92322,-1.15887 -0.3556,-1.97344 -1.32009,-2.05881 -3.10338,-1.69651 -0.84596,0.19438 -1.66723,0.46567 -2.2599,1.2125 -0.19438,0.21942 -0.59796,0.48401 -0.91651,0.19438 -0.35278,-0.32385 -0.34431,-0.82127 -0.018,-1.15182 0.46179,-0.46884 0.99378,-0.8696 1.51201,-1.27882 0.82797,-0.6604 1.48272,-1.36843 1.02094,-2.55764 -0.21908,-0.52811 0.21766,-0.78987 0.58279,-0.99378 z m -5.91467,-46.561022 c 0.74718,-1.521178 2.04364,-2.13607 3.5941,-1.474611 0.93557,0.391583 1.01847,1.404408 1.28164,2.257425 0.073,0.219075 0.048,0.479425 0.073,0.71508 0,1.474611 -0.58314,2.618317 -1.89089,3.355622 -0.49177,0.27552 -0.99907,0.32385 -1.524,0.0194 -1.55046,-0.875241 -2.43487,-3.034594 -1.52153,-4.877152 z m 1.56563,5.968294 c 0.71931,-0.384528 2.02706,0.04833 2.5714,0.928864 1.06927,1.756833 0.98248,3.992033 -0.7994,5.428192 -0.75106,0.607483 -1.9057,0.45473 -2.47332,-0.07303 -0.85866,-0.799395 -1.34373,-1.766711 -1.3589,-2.809875 0.0483,-1.659114 0.73166,-2.772834 2.05881,-3.472745 z m -0.38453,14.162264 c -1.4732,-0.927453 -2.15512,-2.663825 -1.46755,-4.838347 0.47413,-1.496484 2.18263,-2.240845 3.51684,-1.482725 1.13136,0.639233 1.46896,1.836914 1.42204,3.034241 -0.0483,0.821267 -0.0967,1.699331 -0.71402,2.450395 -0.32385,0.382764 -0.73166,0.582789 -1.09819,0.852664 -0.39124,0.283986 -0.28258,0.490713 0.007,0.653344 1.29646,0.751064 1.74449,1.912761 1.66582,3.340453 0.0152,0.945091 -0.14464,1.828447 -0.8696,2.513541 -1.29505,1.237545 -2.67194,1.145117 -3.63926,-0.346075 -1.13947,-1.744486 -1.1684,-4.185002 1.21285,-5.468055 0.19403,-0.09631 0.39794,-0.169333 0.38171,-0.436739 -0.007,-0.283986 -0.27446,-0.194381 -0.42333,-0.270228 z m -2.11949,18.119724 c 0.12136,-0.944033 0.81457,-1.966383 2.16782,-2.534355 0.19544,-0.07303 0.56903,0.07303 0.5207,-0.337608 -0.048,-0.263173 -0.24518,-0.381706 -0.48366,-0.473781 -2.05881,-0.823031 -2.24049,-4.3561 -1.04986,-5.692775 0.56056,-0.629708 1.24424,-0.996244 2.07257,-0.910872 1.0996,0.09631 1.7212,0.835025 2.14418,1.834092 0.60501,1.422047 0.19438,2.666647 -0.51541,3.887611 -0.3309,0.590902 -0.92322,0.858308 -1.52682,1.088319 -0.16969,0.07303 -0.39829,0.01799 -0.43145,0.277283 -0.0194,0.276931 0.21767,0.263173 0.37606,0.330553 1.61396,0.715081 2.37455,2.473678 1.83692,4.218164 -0.35948,1.190625 -0.84596,2.180167 -2.25002,2.494139 -0.71967,0.171097 -1.13559,-0.194028 -1.52576,-0.538692 -1.03082,-0.913694 -1.37372,-1.852083 -1.32962,-3.642078 z M 157.69097,50.090326 c 0.14463,-0.771877 0.87383,-1.319036 1.67181,-1.236133 0.66146,0.07303 1.14512,0.827969 1.12712,1.936044 -0.0138,0.345723 -0.19438,0.804687 -0.51258,1.205795 -0.28399,0.3556 -0.70979,0.467078 -1.14512,0.376061 -0.74577,-0.144639 -1.3148,-1.315861 -1.14406,-2.281767 z m -2.96545,-2.036939 c 0.58278,0.07303 1.45097,0.883356 1.39735,1.492603 -0.073,0.736953 -0.073,1.521178 -0.67099,2.137128 -0.74577,0.760589 -1.6069,0.714022 -2.21861,-0.170744 -0.31574,-0.454731 -0.49072,-0.938389 -0.46744,-1.385006 0.007,-1.415344 0.77329,-2.189692 1.95969,-2.083506 z m -7.6962,2.634898 c 0.121,-0.990953 0.62265,-1.805164 1.68239,-2.221442 1.16876,-0.451908 2.20345,0.530578 2.58939,1.386417 0.54434,1.205794 0.24236,2.313516 -0.51541,3.318227 -0.3556,0.467078 -0.88194,0.670984 -1.56527,0.680861 -0.38453,0.09772 -0.70697,-0.245533 -1.03082,-0.500238 -0.8696,-0.675217 -1.29258,-1.613959 -1.1617,-2.665236 z m -3.96346,0.928864 c 0.91651,-0.875242 2.60314,-0.194381 2.94922,1.174044 0.21907,0.906639 0.21907,1.827389 -0.21908,2.711803 -0.57608,1.105252 -1.78046,1.429102 -2.76436,0.678039 -0.72355,-0.544337 -1.14547,-1.244248 -1.00895,-2.211564 -0.19438,-0.999067 0.3997,-1.728259 1.04599,-2.350911 z m -5.36046,3.209219 c 1.00577,-0.789517 2.14842,-0.654403 3.13231,0.322439 0.66146,0.661458 1.1684,1.883833 1.1684,3.089627 -0.0963,0.760942 -0.32914,1.772356 -1.06644,2.51072 -0.95921,0.954969 -2.0507,1.447094 -3.46428,0.219428 -1.78894,-1.559984 -1.44427,-4.838347 0.21907,-6.144684 z m -2.97251,5.261328 c 1.08303,-0.14605 1.69651,0.547158 2.24755,1.222375 0.5401,0.661458 0.82832,1.482725 0.77576,2.304344 0.073,1.969205 -1.83797,3.872089 -3.43394,3.395486 -1.2125,-0.354189 -2.09726,-1.372658 -2.25989,-3.133725 -0.14605,-1.559983 0.94544,-3.556705 2.66629,-3.787069 z m -4.67007,11.152716 c 0.0483,-1.444272 0.37606,-2.525889 1.34338,-3.387372 1.06821,-0.941211 2.27542,-0.906639 3.3722,0.242711 1.75966,1.817511 1.3903,4.738864 -0.65334,6.097764 -1.44392,0.976841 -3.30165,-0.122767 -3.84034,-1.823156 -0.12136,-0.413455 -0.28117,-0.860072 -0.21767,-1.120422 z m 1.05975,6.844594 c 0.30585,-1.307747 1.33667,-2.136069 2.57139,-2.488847 0.85302,-0.243769 1.59174,0.398286 2.09727,1.05022 1.43474,1.827388 1.03646,4.154663 -0.53587,5.682897 -0.37783,0.359833 -0.92216,0.515408 -1.52718,0.445205 -0.50835,0.09772 -0.92322,-0.219075 -1.30492,-0.519641 -1.34902,-1.098198 -1.67429,-2.582334 -1.2954,-4.171245 z m 1.80516,11.060289 c -0.71367,-1.575153 -0.65334,-3.158419 0.42298,-4.579408 0.80751,-1.072092 2.45004,-1.222375 3.53342,-0.435328 1.0347,0.753886 1.15747,1.810808 1.29117,2.90195 -0.0977,1.208616 -0.2921,2.304344 -1.36137,3.081514 -1.37407,0.999066 -3.11856,0.737305 -3.88479,-0.967317 z m 6.49182,10.529358 c -0.45473,0.354187 -1.05975,0.691797 -1.64395,0.881947 -0.82126,0.28681 -1.4993,-0.21908 -2.09726,-0.697091 -1.41958,-1.145117 -1.84397,-2.634898 -1.58891,-4.448528 0.24518,-1.798108 1.14511,-3.056467 2.86491,-3.602214 1.15217,-0.360892 2.80423,0.45085 3.46286,1.660525 0.44662,0.821619 0.64629,1.681339 0.6604,2.603147 0.0494,1.476022 -0.55139,2.718858 -1.65805,3.602214 z m 8.30827,29.232577 c -0.71367,0.32244 -1.42628,0.66005 -2.14983,0.96732 -2.97921,1.26082 -5.95983,2.52871 -8.91011,3.84175 -0.79939,0.35136 -1.57939,0.86007 -2.54953,0.86677 -0.87524,-0.0963 -1.651,-0.58279 -2.49555,-0.84596 -1.12747,-0.34466 -2.25036,-0.71931 -3.36373,-1.12042 -1.27882,-0.46143 -2.54247,-0.96591 -3.81882,-1.44286 -1.276,-0.47661 -2.54776,-0.94509 -3.83223,-1.42205 -0.018,-0.006 -0.073,-0.006 -0.073,-0.0166 -0.33055,-0.19438 -0.92322,-0.19438 -0.94544,-0.61313 -0.0176,-0.46849 0.56938,-0.34466 0.88194,-0.46178 1.78894,-0.69039 3.62585,-1.276 5.39256,-2.0186 1.84362,-0.76905 3.76202,-1.3148 5.60705,-2.06587 0.84349,-0.34572 1.72791,-0.57608 2.58798,-0.89993 0.57608,-0.21908 1.15887,0.21943 1.73496,0.3817 2.60315,0.7359 5.12198,1.76001 7.71984,2.5206 1.35854,0.39829 2.65535,1.00612 4.0774,1.23755 0.25224,0.0483 0.63006,0.0963 0.67134,0.44908 0.0176,0.32385 -0.25506,0.50589 -0.53058,0.63677 z m -5.99864,-15.27704 c -0.33055,-0.30057 -0.72884,-0.53622 -0.96026,-0.92322 -0.14499,-0.24271 -0.50024,-0.43709 -0.25223,-0.76094 0.21907,-0.28081 0.5401,-0.29069 0.86959,-0.14605 0.75071,0.32385 1.5046,0.63676 2.26519,0.92463 1.76001,0.67557 3.11044,0.35172 3.78001,-1.49084 0.28117,-0.78423 0.16969,-1.80516 1.19063,-2.21051 0.14464,-0.073 0.19438,-0.3556 0.007,-0.39969 -1.03646,-0.29069 -1.23754,-1.29646 -1.76671,-2.0186 -0.74683,-1.01423 -1.6069,-1.25271 -2.78095,-0.85866 -0.84596,0.27693 -1.61642,0.66852 -2.25989,1.28164 -0.25365,0.24518 -0.56903,0.62442 -0.92886,0.14464 -0.30868,-0.40781 -0.26176,-0.82126 0.21907,-1.07068 0.52247,-0.28645 0.66852,-0.88477 1.11337,-1.21532 1.34655,-1.00612 2.77424,-1.9184 4.07211,-2.97956 1.52577,-1.26083 3.15595,-2.419702 4.51591,-3.879144 0.44521,-0.483658 0.0981,-0.928511 -0.12136,-1.304925 -1.58855,-2.749197 -3.10303,-5.536847 -4.37656,-8.448674 -0.98248,-2.247548 -1.76918,-4.569531 -2.58939,-6.881989 -0.66145,-1.864431 -1.19873,-3.763433 -1.61925,-5.677606 -0.54398,-2.494138 -0.93838,-5.043663 -0.79904,-7.602361 0.12136,-2.265538 0.60502,-4.529666 2.02001,-6.39833 1.04457,-1.39065 2.31105,-2.579864 3.80224,-3.524955 2.36467,-1.482725 4.8768,-2.564695 7.59566,-3.273073 2.54246,-0.669572 5.1001,-0.866775 7.6962,-0.913694 0.69179,-0.01376 1.01564,0.409575 1.1123,0.938742 0.43815,2.350911 0.92887,4.708525 1.18357,7.083072 0.24554,2.356202 0.62301,4.722283 0.49072,6.257572 -0.19438,5.499805 -0.65335,10.1092 -1.51024,14.685786 -0.30727,1.667227 -0.56233,3.357033 -0.98955,4.984397 -0.75388,2.873022 -1.43862,5.830358 -3.31964,8.2804 -0.4452,0.583141 0.073,0.837847 0.48366,1.09855 2.43346,1.511652 4.86304,3.039882 7.30497,4.537782 0.52917,0.31432 0.61454,0.66851 0.52211,1.25412 -0.17074,1.01424 0.63006,1.6316 1.1811,2.31105 0.21908,0.28222 0.49072,0.56198 0.85302,0.76059 0.30586,0.19438 0.58279,0.48648 0.64347,0.88477 0.0497,0.21907 0.0194,0.47378 -0.16934,0.66675 -0.26317,0.26176 -0.44802,-0.019 -0.623,-0.0977 -0.62407,-0.34467 -1.08303,-0.89853 -1.80517,-1.13701 -0.76764,-0.26317 -1.53775,-0.30162 -2.28882,-0.21907 -0.63958,0.073 -1.09149,0.60783 -1.19203,1.23754 -0.12136,0.8061 -0.5073,1.37513 -1.17264,1.77342 -0.50588,0.30586 -0.56233,0.53763 0.073,0.78281 0.51399,0.19438 0.58279,0.70697 0.71931,1.16875 0.35419,1.19063 0.92745,2.17311 2.25037,2.50367 1.01812,0.25506 1.76636,-0.39123 2.57951,-0.76059 0.64347,-0.2854 1.20439,-0.75107 1.89054,-0.99907 0.21801,-0.073 0.44661,-0.0977 0.58984,0.073 0.19438,0.21766 -0.007,0.39123 -0.14464,0.55104 -1.67569,2.00518 -3.7345,3.38031 -6.3694,3.69464 -2.09021,0.24518 -3.82376,-0.66958 -5.41408,-1.89054 -0.70838,-0.53904 -1.37407,-1.15887 -1.93499,-1.86584 -0.68333,-0.87524 -0.6544,-1.26224 0.21802,-1.99143 1.16029,-0.97684 1.73602,-2.18017 1.48273,-3.68618 -0.19438,-1.22802 -0.73202,-2.34279 -1.77095,-3.09527 -1.16981,-0.84596 -3.04941,-0.45473 -3.77155,0.78564 -0.86818,1.48978 -1.13841,3.60891 0.61737,4.95406 0.62124,0.47695 1.16557,1.12853 1.76671,1.6838 0.2988,0.27729 0.35383,0.53764 0.14605,0.84632 -0.99907,1.52682 -2.23661,2.69522 -3.98675,3.44911 -1.03787,0.44944 -2.06727,0.63676 -3.11044,0.70696 -2.73402,0.16969 -5.14526,-0.71508 -7.1822,-2.56434 z m 50.72274,17.41135 c -0.95885,1.52682 -2.90195,2.33574 -4.54448,1.7145 -1.22802,-0.46179 -2.37455,-1.17017 -2.72027,-2.61162 -0.0166,-0.073 -0.0483,-0.0977 -0.0483,-0.14605 -0.24377,-0.63641 -0.43286,-1.01282 -1.3148,-0.5909 -2.27507,1.09114 -4.63268,2.02706 -6.9589,2.9972 -1.77376,0.74542 -3.56517,1.43863 -5.33858,2.17311 -0.62442,0.26176 -1.25413,0.21766 -1.78329,-0.073 -1.68946,-0.92322 -3.47945,-1.60409 -5.23099,-2.38267 -1.78188,-0.78951 -3.47804,-1.75154 -5.31495,-2.44192 -0.46602,-0.16934 -0.99096,-0.43286 -1.44992,-0.74542 -0.39934,-0.27023 -0.7687,-0.34043 -0.99201,0.36936 -0.56903,1.80375 -2.23661,3.03141 -3.88761,3.00249 -1.43581,-0.0166 -3.46287,-1.36137 -3.90949,-2.63455 -0.0963,-0.31432 -0.048,-0.69321 -0.0716,-1.23754 -0.19544,-1.65912 0.91369,-2.70369 2.413,-3.34045 1.3903,-0.59126 2.80988,-0.51541 4.03084,0.52211 0.62406,0.5281 1.25412,1.07244 1.4605,1.91276 0.0734,0.31291 0.27446,0.24553 0.47413,0.28681 0.61207,0.0977 1.15217,-0.19438 1.69651,-0.36936 2.08915,-0.69039 4.1783,-1.3903 6.24381,-2.13607 1.5367,-0.56198 3.14043,-0.9137 4.61504,-1.61925 1.4471,-0.6918 2.65818,0.0483 3.94124,0.56233 2.04364,0.82126 4.06364,1.71308 6.14327,2.45709 1.48272,0.53058 2.95875,1.12713 4.3561,1.84503 0.69321,0.35983 0.82127,0.0166 0.96167,-0.4325 0.60501,-1.96921 3.03989,-3.08011 5.05319,-2.4818 1.70462,0.50024 2.45851,1.66723 2.7492,3.24238 0.14605,0.76059 -0.16934,1.51166 -0.57574,2.17312 z m 13.23481,-5.50651 c 1.10385,-0.24377 2.20486,-0.53728 3.29636,-0.85443 0.21907,-0.0716 0.40781,-0.0963 0.66569,-0.0963 0.34572,-0.073 0.69286,0.121 1.02094,0.26176 3.1556,1.3201 6.31296,2.62784 9.43963,4.01814 1.12712,0.50447 2.27929,0.9525 3.41736,1.43616 0.24553,0.0963 0.57608,0.21907 0.57608,0.48648 0.008,0.28116 -0.32385,0.33479 -0.58279,0.42016 -1.67287,0.56374 -3.36514,1.0735 -5.03272,1.63018 -1.79811,0.60079 -3.62268,1.0915 -5.41303,1.73497 -0.9906,0.3556 -2.08209,0.50588 -2.99579,0.99236 -1.81327,0.96732 -3.12667,-0.30621 -4.50885,-0.94262 -0.889,-0.41628 -1.82739,-0.76906 -2.7118,-1.22802 -2.2726,-1.18357 -4.60693,-2.22815 -6.91938,-3.32634 -0.50024,-0.24413 -0.99907,-0.47414 -1.50601,-0.70838 -0.27023,-0.12136 -0.39829,-0.32244 -0.36654,-0.6283 0.048,-0.32385 0.29069,-0.24553 0.48225,-0.30868 1.58044,-0.47695 3.18029,-0.92216 4.78437,-1.29822 2.11949,-0.50024 4.21816,-1.10384 6.35282,-1.56563 z m 0.62301,-24.38577 c -0.0981,0.073 -0.21908,0.19438 -0.33091,0.21908 -0.74542,0.14464 -1.41922,-0.28258 -2.25707,-0.0497 -0.54716,0.17109 -1.25412,-0.65299 -1.67569,-1.368075 -1.01988,-1.706033 -1.17264,-3.370791 -0.26882,-5.184422 1.03223,-2.051755 3.68618,-2.534003 5.30119,-0.891469 0.76094,0.784225 1.30528,2.356555 1.19768,3.694641 0.0977,1.467556 -0.63676,2.663475 -1.96638,3.561995 z m 3.86397,-13.08029 c 0,1.825978 -0.8075,3.042708 -2.24366,3.671005 -0.69568,0.299156 -1.26612,0.09772 -1.79811,-0.217663 -2.36467,-1.565628 -2.07398,-5.1689 0.073,-6.506986 0.79905,-0.500239 1.95827,-0.46602 2.63208,0.263172 0.73307,0.799041 1.51165,1.645355 1.34338,2.802819 z m -0.74683,-4.116211 c -0.29915,0.09631 -0.57608,0.169333 -0.83643,0.04833 -1.64289,-0.751063 -2.3428,-1.579386 -2.44899,-4.047419 0.008,-0.869597 0.5514,-1.904294 1.48273,-2.650066 1.52541,-1.212498 3.0413,-0.194381 3.81847,1.336674 1.0668,2.058812 0.0141,4.609748 -2.01437,5.315303 z m 2.05881,-8.618361 c -1.61113,1.012825 -3.09527,0.09666 -3.84774,-1.358547 -0.75354,-1.476022 -0.59091,-2.942167 0.39828,-4.325761 1.23755,-1.725436 3.37221,-1.635831 4.47746,0.42298 0.37183,0.682273 0.5468,1.445684 0.41451,2.21862 0.073,1.278819 -0.40781,2.396419 -1.44251,3.041297 z" />
  </g>
</svg>
